# xmcd CD database file
#
# Track frame offsets:
#	150
#	12522
#	27615
#	41470
#	55684
#	68532
#	80355
#	92823
#	110725
#	120783
#	135560
#	152324
#	164901
#
# Disc length: 2447 seconds
#
# Revision: 2
# Processed by: cddbd v1.5.2PL0 Copyright (c) Steve Scherf et al.
# Submitted via: CDex 1.95
#
DISCID=9f098d0d
DTITLE=Bjoero Haaland - Nashville - Here We Go Again
DYEAR=1990
DGENRE=Country
TTITLE0=You're the reason
TTITLE1=Next to you
TTITLE2=Here we go again
TTITLE3=I love you because
TTITLE4=Stand at your window
TTITLE5=Burning bridges
TTITLE6=Talk back trembling lips
TTITLE7=It goes without saying
TTITLE8=From a jack to a king
TTITLE9=Guilty
TTITLE10=Somebody's pain in the heart
TTITLE11=Bimbo
TTITLE12=My way
EXTD=YEAR: 1990
EXTT0=
EXTT1=
EXTT2=
EXTT3=
EXTT4=
EXTT5=
EXTT6=
EXTT7=
EXTT8=
EXTT9=
EXTT10=
EXTT11=
EXTT12=
PLAYORDER=
